<?xml version="1.0" encoding="UTF-8" standalone="no"?>
<!-- Created with Inkscape (http://www.inkscape.org/) -->

<svg
   width="40"
   height="40"
   viewBox="0 0 10.583333 10.583333"
   version="1.1"
   id="svg1"
   inkscape:version="1.3.2 (091e20e, 2023-11-25, custom)"
   sodipodi:docname="wissel.svg"
   xmlns:inkscape="http://www.inkscape.org/namespaces/inkscape"
   xmlns:sodipodi="http://sodipodi.sourceforge.net/DTD/sodipodi-0.dtd"
   xmlns="http://www.w3.org/2000/svg"
   xmlns:svg="http://www.w3.org/2000/svg">
  <sodipodi:namedview
     id="namedview1"
     pagecolor="#ffffff"
     bordercolor="#000000"
     borderopacity="0.25"
     inkscape:showpageshadow="2"
     inkscape:pageopacity="0.0"
     inkscape:pagecheckerboard="0"
     inkscape:deskcolor="#d1d1d1"
     inkscape:document-units="mm"
     inkscape:zoom="8.6174175"
     inkscape:cx="14.795616"
     inkscape:cy="9.3415458"
     inkscape:window-width="1920"
     inkscape:window-height="1111"
     inkscape:window-x="-9"
     inkscape:window-y="-9"
     inkscape:window-maximized="1"
     inkscape:current-layer="layer1" />
  <defs
     id="defs1" />
  <g
     inkscape:label="Laag 1"
     inkscape:groupmode="layer"
     id="layer1">
    <path
       style="fill:#c40000;fill-opacity:1;stroke-width:1"
       d="M 1.0699229,7.4384832 C 0.97554734,7.1902569 0.88176484,6.8275484 0.82919574,6.5074612 0.79101294,6.2749807 0.79087294,5.4939565 0.82894894,5.279104 1.0786133,3.8711583 1.9080463,2.8328907 3.461895,1.9832355 L 3.7250775,1.8393259 3.6400011,1.6840684 C 3.3654641,1.1830618 3.0715161,0.58008109 3.0715161,0.51792601 c 0,-0.10111782 0.1016963,-0.19574668 0.2103004,-0.19568557 0.080684,4.432e-5 3.331772,0.89718656 3.4883875,0.96262486 0.105098,0.043911 0.2320457,0.1748407 0.2873437,0.2963532 0.097137,0.2134497 0.095599,0.2200209 -0.461145,1.9694897 -0.2777866,0.8728941 -0.52525,1.6491414 -0.5499193,1.7249933 -0.055862,0.171764 -0.1505898,0.2860333 -0.2371179,0.2860333 -0.124654,0 -0.1924812,-0.09623 -0.5522869,-0.7835697 l -0.3422284,-0.653762 -0.068339,0.01358 C 4.213903,4.2636724 3.3119508,4.7097304 2.4627734,5.3168539 1.7090728,5.8557145 1.3867082,6.1485442 1.2597781,6.409628 1.1318955,6.6726742 1.1039707,6.8100281 1.1039707,7.1759948 c 0,0.176374 -0.00271,0.3206787 -0.00598,0.3206772 -0.00327,-9e-7 -0.015931,-0.026184 -0.028097,-0.058188 z"
       id="path2-0"
       sodipodi:nodetypes="cscscssssssssscssssscc" />
    <path
       style="fill:#008000;fill-opacity:1;stroke-width:1"
       d="m 9.3502556,3.2408117 c 0.09438,0.2482262 0.188158,0.6109348 0.240727,0.931022 0.03819,0.2324804 0.03832,1.0135046 2.47e-4,1.2283571 -0.249664,1.4079457 -1.079097,2.4462134 -2.6329459,3.2958685 l -0.2631825,0.1439096 0.085077,0.1552575 c 0.2745371,0.5010061 0.568485,1.1039876 0.568485,1.1661426 0,0.101117 -0.1016962,0.195746 -0.2103004,0.195685 C 7.0576785,10.35701 3.8065901,9.4598676 3.6499746,9.3944293 3.5448766,9.350518 3.4179289,9.2195887 3.3626309,9.0980763 3.2654936,8.8846266 3.2670317,8.8780555 3.8237759,7.1285866 4.1015625,6.2556925 4.3490259,5.4794453 4.3736952,5.4035934 4.4295566,5.2318293 4.5242851,5.1175601 4.6108132,5.1175601 c 0.124654,0 0.1924812,0.09623 0.5522868,0.7835697 l 0.3422285,0.653762 0.068339,-0.01358 C 6.2062752,6.4156222 7.1082274,5.9695641 7.9574046,5.3624406 c 0.753701,-0.5388605 1.076065,-0.8316902 1.202996,-1.092774 0.127882,-0.2630463 0.155807,-0.4004001 0.155807,-0.7663668 0,-0.176374 0.0027,-0.3206787 0.0059,-0.3206773 0.0033,1e-6 0.01593,0.026184 0.0281,0.058188 z"
       id="path8"
       sodipodi:nodetypes="cscscssssssssscssssscc" />
  </g>
</svg>
